# xmcd
#
# Track frame offsets: 
#        151
#        13854
#        28213
#        39478
#        55997
#        71954
#        86077
#        97604
#        110331
#        122656
#        142871
#        164830
#        181229
#        198266
#        218251
#        231176
#        249167
#        260258
#        273769
#        282754
#
# Disc length: 3958 seconds
#
# Revision: 0
# Processed by: cddbd v1.5.2PL0 Copyright (c) Steve Scherf et al.
# Submitted via: ExactAudioCopy v0.99pb4
#
DISCID=100f7414
DTITLE=Lightnin' Hopkins - The Very Best of Lightnin' Hopkins
DYEAR=2009
DGENRE=
TTITLE0=Moho Hand
TTITLE1=Santa Fe Blues
TTITLE2=Lightnin' Jump
TTITLE3=Short Haired Woman
TTITLE4=Coffee For Mama
TTITLE5=Rainy Day Blues
TTITLE6=Sometimes She Will
TTITLE7=Late in the Evening
TTITLE8=The Foot Race is on
TTITLE9=Glory Be
TTITLE10=That Gambling Life
TTITLE11=Gonna Pull A Party
TTITLE12=Shotgun
TTITLE13=Shine on Moon
TTITLE14=Lightnin' Strikes One More Time
TTITLE15=Back Door Friend
TTITLE16=Pneumonia Blues
TTITLE17=Katie Mae
TTITLE18=Let Me Play With Your Poodle
TTITLE19=West Texas Blues
EXTD=
EXTT0=
EXTT1=
EXTT2=
EXTT3=
EXTT4=
EXTT5=
EXTT6=
EXTT7=
EXTT8=
EXTT9=
EXTT10=
EXTT11=
EXTT12=
EXTT13=
EXTT14=
EXTT15=
EXTT16=
EXTT17=
EXTT18=
EXTT19=
PLAYORDER=
